<?xml version="1.0" encoding="utf-8"?>
<!-- Generator: Adobe Illustrator 17.0.0, SVG Export Plug-In . SVG Version: 6.00 Build 0)  -->
<!DOCTYPE svg PUBLIC "-//W3C//DTD SVG 1.1//EN" "http://www.w3.org/Graphics/SVG/1.1/DTD/svg11.dtd">
<svg version="1.1" id="Livello_1" xmlns="http://www.w3.org/2000/svg" xmlns:xlink="http://www.w3.org/1999/xlink" x="0px" y="0px"
	 width="405px" height="106.5px" viewBox="0 0 405 106.5" enable-background="new 0 0 405 106.5" xml:space="preserve">
<g id="main_text" transform="translate(99.0856513368132, 1.8854316134513667) scale(2.507321307716354)" xmlns:name="mainText_mainfill">
	
		<linearGradient id="SVGID_1_" gradientUnits="userSpaceOnUse" x1="-164.4456" y1="168.1157" x2="-163.4456" y2="168.1157" gradientTransform="matrix(291.1 0 0 -38.0611 47872.0703 6415.085)">
		<stop  offset="0" style="stop-color:#2D388A"/>
		<stop  offset="1" style="stop-color:#00AEEF"/>
	</linearGradient>
	<path fill="url(#SVGID_1_)" d="M10.22,12.94c0,0.573-0.11,1.11-0.33,1.61c-0.22,0.5-0.517,0.937-0.89,1.31
		c-0.373,0.373-0.81,0.667-1.31,0.88s-1.037,0.32-1.61,0.32H3.14v6.36c0,0.16-0.057,0.297-0.17,0.41C2.857,23.943,2.72,24,2.56,24
		c-0.173,0-0.317-0.057-0.43-0.17s-0.17-0.25-0.17-0.41V9.4c0-0.16,0.057-0.297,0.17-0.41c0.113-0.113,0.257-0.17,0.43-0.17h3.52
		c0.573,0,1.11,0.107,1.61,0.32S8.627,9.647,9,10.02c0.373,0.373,0.67,0.81,0.89,1.31C10.11,11.83,10.22,12.367,10.22,12.94z
		 M9.04,12.94c0-0.4-0.077-0.78-0.23-1.14c-0.153-0.36-0.363-0.677-0.63-0.95c-0.267-0.273-0.58-0.487-0.94-0.64
		S6.493,9.98,6.08,9.98H3.14v5.9h2.94c0.413,0,0.8-0.077,1.16-0.23c0.36-0.153,0.673-0.363,0.94-0.63
		c0.267-0.267,0.477-0.58,0.63-0.94C8.963,13.72,9.04,13.34,9.04,12.94z M14,23.42c0,0.12-0.047,0.24-0.14,0.36
		C13.753,23.927,13.607,24,13.42,24c-0.173,0-0.317-0.057-0.43-0.17c-0.113-0.113-0.17-0.25-0.17-0.41v-8.54
		c0-0.16,0.057-0.297,0.17-0.41c0.113-0.113,0.257-0.17,0.43-0.17c0.16,0,0.297,0.057,0.41,0.17c0.113,0.113,0.17,0.25,0.17,0.41
		v0.5c0.147-0.307,0.387-0.563,0.72-0.77c0.333-0.207,0.673-0.31,1.02-0.31c0.6,0,1.083,0.14,1.45,0.42
		c0.367,0.28,0.65,0.693,0.85,1.24c0.067,0.187,0.05,0.37-0.05,0.55s-0.263,0.27-0.49,0.27c-0.2,0-0.35-0.073-0.45-0.22
		c-0.1-0.147-0.2-0.307-0.3-0.48c-0.1-0.173-0.233-0.327-0.4-0.46s-0.417-0.187-0.75-0.16c-0.213,0.013-0.417,0.073-0.61,0.18
		c-0.193,0.107-0.363,0.243-0.51,0.41c-0.147,0.167-0.263,0.35-0.35,0.55C14.043,16.8,14,17.007,14,17.22
		C14,17.22,14,23.42,14,23.42z M19.76,19.16c0-0.667,0.127-1.297,0.38-1.89s0.6-1.11,1.04-1.55c0.44-0.44,0.957-0.787,1.55-1.04
		s1.223-0.38,1.89-0.38c0.667,0,1.293,0.127,1.88,0.38c0.587,0.253,1.1,0.6,1.54,1.04c0.44,0.44,0.787,0.957,1.04,1.55
		s0.38,1.223,0.38,1.89s-0.127,1.293-0.38,1.88c-0.253,0.587-0.6,1.1-1.04,1.54s-0.953,0.787-1.54,1.04S25.287,24,24.62,24
		c-0.667,0-1.297-0.127-1.89-0.38c-0.593-0.253-1.11-0.6-1.55-1.04s-0.787-0.953-1.04-1.54C19.887,20.453,19.76,19.827,19.76,19.16z
		 M20.94,19.16c0,0.507,0.097,0.983,0.29,1.43c0.193,0.447,0.457,0.833,0.79,1.16c0.333,0.327,0.723,0.587,1.17,0.78
		c0.447,0.193,0.923,0.29,1.43,0.29s0.983-0.097,1.43-0.29c0.447-0.193,0.833-0.453,1.16-0.78s0.587-0.713,0.78-1.16
		c0.193-0.447,0.29-0.923,0.29-1.43s-0.097-0.983-0.29-1.43c-0.193-0.447-0.453-0.837-0.78-1.17c-0.327-0.333-0.713-0.597-1.16-0.79
		c-0.447-0.193-0.923-0.29-1.43-0.29s-0.983,0.097-1.43,0.29c-0.447,0.193-0.837,0.457-1.17,0.79
		c-0.333,0.333-0.597,0.723-0.79,1.17C21.037,18.177,20.94,18.653,20.94,19.16z M39.3,23.42c0,0.16-0.057,0.297-0.17,0.41
		C39.017,23.943,38.88,24,38.72,24c-0.173,0-0.327-0.067-0.46-0.2l-3.02-4.06l-3.02,4.06c-0.107,0.133-0.26,0.2-0.46,0.2
		c-0.16,0-0.297-0.057-0.41-0.17c-0.113-0.113-0.17-0.25-0.17-0.41c0-0.133,0.047-0.26,0.14-0.38l3.16-4.02l-3.16-3.76
		c-0.093-0.12-0.14-0.247-0.14-0.38c0-0.16,0.057-0.297,0.17-0.41c0.113-0.113,0.25-0.17,0.41-0.17c0.2,0,0.353,0.067,0.46,0.2
		l3.02,3.8l3.02-3.8c0.133-0.133,0.287-0.2,0.46-0.2c0.16,0,0.297,0.057,0.41,0.17c0.113,0.113,0.17,0.25,0.17,0.41
		c0,0.16-0.047,0.287-0.14,0.38l-3.14,3.76l3.14,4.02C39.253,23.133,39.3,23.26,39.3,23.42z M43.66,11.46
		c0,0.24-0.087,0.447-0.26,0.62c-0.173,0.173-0.38,0.26-0.62,0.26c-0.24,0-0.447-0.087-0.62-0.26c-0.173-0.173-0.26-0.38-0.26-0.62
		c0-0.253,0.087-0.46,0.26-0.62s0.38-0.24,0.62-0.24c0.253,0,0.463,0.08,0.63,0.24S43.66,11.207,43.66,11.46z M43.38,23.42
		c0,0.16-0.06,0.297-0.18,0.41C43.08,23.943,42.94,24,42.78,24c-0.16,0-0.297-0.057-0.41-0.17c-0.113-0.113-0.17-0.25-0.17-0.41
		v-8.54c0-0.16,0.057-0.297,0.17-0.41c0.113-0.113,0.25-0.17,0.41-0.17c0.16,0,0.3,0.057,0.42,0.17c0.12,0.113,0.18,0.25,0.18,0.41
		V23.42z M60.12,23.42c0,0.16-0.057,0.297-0.17,0.41C59.837,23.943,59.7,24,59.54,24s-0.297-0.057-0.41-0.17
		c-0.113-0.113-0.17-0.25-0.17-0.41v-5.7c0-0.307-0.06-0.597-0.18-0.87c-0.12-0.273-0.283-0.51-0.49-0.71
		c-0.207-0.2-0.447-0.36-0.72-0.48c-0.273-0.12-0.563-0.18-0.87-0.18c-0.307,0-0.597,0.06-0.87,0.18
		c-0.273,0.12-0.51,0.28-0.71,0.48c-0.2,0.2-0.36,0.437-0.48,0.71c-0.12,0.273-0.18,0.563-0.18,0.87v5.7
		c0,0.16-0.057,0.297-0.17,0.41C54.177,23.943,54.04,24,53.88,24s-0.3-0.057-0.42-0.17s-0.18-0.25-0.18-0.41v-5.7
		c0-0.307-0.06-0.597-0.18-0.87s-0.28-0.51-0.48-0.71c-0.2-0.2-0.437-0.36-0.71-0.48c-0.273-0.12-0.563-0.18-0.87-0.18
		c-0.307,0-0.597,0.06-0.87,0.18c-0.273,0.12-0.51,0.28-0.71,0.48c-0.2,0.2-0.36,0.437-0.48,0.71c-0.12,0.273-0.18,0.563-0.18,0.87
		c0,0.027-0.007,0.057-0.02,0.09c-0.013,0.033-0.02,0.07-0.02,0.11v5.5c0,0.16-0.057,0.297-0.17,0.41S48.34,24,48.18,24
		c-0.173,0-0.317-0.057-0.43-0.17s-0.17-0.25-0.17-0.41v-8.66c0-0.173,0.057-0.317,0.17-0.43c0.113-0.113,0.257-0.17,0.43-0.17
		c0.147,0,0.26,0.033,0.34,0.1s0.137,0.15,0.17,0.25s0.053,0.21,0.06,0.33c0.007,0.12,0.01,0.233,0.01,0.34
		c0.307-0.28,0.657-0.497,1.05-0.65s0.803-0.23,1.23-0.23c0.573,0,1.11,0.133,1.61,0.4c0.5,0.267,0.91,0.633,1.23,1.1
		c0.307-0.467,0.713-0.833,1.22-1.1s1.04-0.4,1.6-0.4c0.467,0,0.907,0.09,1.32,0.27c0.413,0.18,0.777,0.427,1.09,0.74
		c0.313,0.313,0.56,0.677,0.74,1.09c0.18,0.413,0.27,0.853,0.27,1.32L60.12,23.42L60.12,23.42z M72.44,23.42
		c0,0.16-0.057,0.297-0.17,0.41C72.157,23.943,72.02,24,71.86,24c-0.173,0-0.317-0.057-0.43-0.17c-0.113-0.113-0.17-0.25-0.17-0.41
		V22.3c-0.467,0.547-1.017,0.967-1.65,1.26C68.977,23.853,68.307,24,67.6,24c-0.667,0-1.297-0.127-1.89-0.38
		c-0.593-0.253-1.11-0.6-1.55-1.04c-0.44-0.44-0.787-0.953-1.04-1.54c-0.253-0.587-0.38-1.213-0.38-1.88
		c0-0.667,0.127-1.297,0.38-1.89s0.6-1.11,1.04-1.55c0.44-0.44,0.957-0.787,1.55-1.04c0.593-0.253,1.223-0.38,1.89-0.38
		c0.707,0,1.377,0.147,2.01,0.44s1.183,0.713,1.65,1.26v-1.12c0-0.16,0.057-0.297,0.17-0.41c0.113-0.113,0.257-0.17,0.43-0.17
		c0.16,0,0.297,0.057,0.41,0.17c0.113,0.113,0.17,0.25,0.17,0.41C72.44,14.88,72.44,23.42,72.44,23.42z M71.26,19.16
		c0-0.507-0.097-0.983-0.29-1.43s-0.453-0.837-0.78-1.17c-0.327-0.333-0.713-0.597-1.16-0.79c-0.447-0.193-0.923-0.29-1.43-0.29
		c-0.507,0-0.983,0.097-1.43,0.29c-0.447,0.193-0.837,0.457-1.17,0.79c-0.333,0.333-0.597,0.723-0.79,1.17
		c-0.193,0.447-0.29,0.923-0.29,1.43s0.097,0.983,0.29,1.43s0.457,0.833,0.79,1.16s0.723,0.587,1.17,0.78
		c0.447,0.193,0.923,0.29,1.43,0.29c0.507,0,0.983-0.097,1.43-0.29c0.447-0.193,0.833-0.453,1.16-0.78s0.587-0.713,0.78-1.16
		S71.26,19.667,71.26,19.16z M94.96,18.22c0,0.8-0.153,1.55-0.46,2.25s-0.72,1.31-1.24,1.83c-0.52,0.52-1.133,0.933-1.84,1.24
		C90.713,23.847,89.96,24,89.16,24s-1.55-0.153-2.25-0.46c-0.7-0.307-1.31-0.72-1.83-1.24s-0.933-1.13-1.24-1.83
		c-0.307-0.7-0.46-1.45-0.46-2.25V9.4c0-0.16,0.057-0.297,0.17-0.41s0.257-0.17,0.43-0.17c0.16,0,0.297,0.057,0.41,0.17
		c0.113,0.113,0.17,0.25,0.17,0.41v8.82c0,0.64,0.12,1.237,0.36,1.79c0.24,0.553,0.57,1.04,0.99,1.46s0.907,0.75,1.46,0.99
		c0.553,0.24,1.15,0.36,1.79,0.36s1.24-0.12,1.8-0.36c0.56-0.24,1.05-0.57,1.47-0.99s0.75-0.907,0.99-1.46
		c0.24-0.553,0.36-1.15,0.36-1.79V9.4c0-0.16,0.057-0.297,0.17-0.41c0.113-0.113,0.25-0.17,0.41-0.17s0.3,0.057,0.42,0.17
		s0.18,0.25,0.18,0.41L94.96,18.22L94.96,18.22z M105.76,23.42c0,0.16-0.057,0.297-0.17,0.41c-0.113,0.113-0.25,0.17-0.41,0.17
		s-0.3-0.057-0.42-0.17c-0.12-0.113-0.18-0.25-0.18-0.41v-5.7c0-0.307-0.06-0.597-0.18-0.87c-0.12-0.273-0.28-0.51-0.48-0.71
		c-0.2-0.2-0.437-0.36-0.71-0.48c-0.273-0.12-0.563-0.18-0.87-0.18c-0.307,0-0.597,0.06-0.87,0.18c-0.273,0.12-0.51,0.28-0.71,0.48
		c-0.2,0.2-0.36,0.437-0.48,0.71c-0.12,0.273-0.18,0.563-0.18,0.87c0,0.027-0.007,0.057-0.02,0.09c-0.013,0.033-0.02,0.07-0.02,0.11
		v5.5c0,0.16-0.057,0.297-0.17,0.41C99.777,23.943,99.64,24,99.48,24c-0.173,0-0.317-0.057-0.43-0.17
		c-0.113-0.113-0.17-0.25-0.17-0.41v-8.66c0-0.173,0.057-0.317,0.17-0.43c0.113-0.113,0.257-0.17,0.43-0.17
		c0.147,0,0.26,0.033,0.34,0.1c0.08,0.067,0.137,0.15,0.17,0.25s0.053,0.21,0.06,0.33c0.007,0.12,0.01,0.233,0.01,0.34
		c0.307-0.28,0.657-0.497,1.05-0.65c0.393-0.153,0.803-0.23,1.23-0.23c0.467,0,0.907,0.09,1.32,0.27
		c0.413,0.18,0.777,0.427,1.09,0.74c0.313,0.313,0.56,0.677,0.74,1.09c0.18,0.413,0.27,0.853,0.27,1.32L105.76,23.42L105.76,23.42z
		 M108.36,19.16c0-0.667,0.127-1.297,0.38-1.89c0.253-0.593,0.6-1.11,1.04-1.55c0.44-0.44,0.957-0.787,1.55-1.04
		c0.593-0.253,1.223-0.38,1.89-0.38c0.667,0,1.293,0.127,1.88,0.38c0.587,0.253,1.1,0.6,1.54,1.04c0.44,0.44,0.787,0.957,1.04,1.55
		c0.253,0.593,0.38,1.223,0.38,1.89s-0.127,1.293-0.38,1.88c-0.253,0.587-0.6,1.1-1.04,1.54c-0.44,0.44-0.953,0.787-1.54,1.04
		c-0.587,0.253-1.213,0.38-1.88,0.38c-0.667,0-1.297-0.127-1.89-0.38c-0.593-0.253-1.11-0.6-1.55-1.04s-0.787-0.953-1.04-1.54
		C108.487,20.453,108.36,19.827,108.36,19.16z M109.54,19.16c0,0.507,0.097,0.983,0.29,1.43s0.457,0.833,0.79,1.16
		c0.333,0.327,0.723,0.587,1.17,0.78c0.447,0.193,0.923,0.29,1.43,0.29s0.983-0.097,1.43-0.29c0.447-0.193,0.833-0.453,1.16-0.78
		c0.327-0.327,0.587-0.713,0.78-1.16s0.29-0.923,0.29-1.43s-0.097-0.983-0.29-1.43c-0.193-0.447-0.453-0.837-0.78-1.17
		c-0.327-0.333-0.713-0.597-1.16-0.79c-0.447-0.193-0.923-0.29-1.43-0.29s-0.983,0.097-1.43,0.29
		c-0.447,0.193-0.837,0.457-1.17,0.79c-0.333,0.333-0.597,0.723-0.79,1.17S109.54,18.653,109.54,19.16z"/>
</g>
<g id="slogan_text" transform="translate(103.55349539753269, 76.56147190248836) scale(0.5268798652250162)" xmlns:name="sloganText_mainfill">
	
		<linearGradient id="SVGID_2_" gradientUnits="userSpaceOnUse" x1="-790.0734" y1="605.2791" x2="-789.0734" y2="605.2791" gradientTransform="matrix(174.66 0 0 -7.2692 137995.0625 4417.1396)">
		<stop  offset="0" style="stop-color:#2D388A"/>
		<stop  offset="1" style="stop-color:#00AEEF"/>
	</linearGradient>
	<path fill="url(#SVGID_2_)" d="M9.339,10.441c0.17,0,0.288,0.119,0.288,0.271v1.305c0,0.169-0.102,0.271-0.288,0.271H2.763v4.136
		h3.746c0.169,0,0.288,0.119,0.288,0.288v1.271c0,0.186-0.119,0.288-0.288,0.288H2.763v5.441C2.763,23.899,2.661,24,2.508,24H1.492
		c-0.407,0-0.644-0.288-0.644-0.678v-12.61c0-0.153,0.102-0.271,0.271-0.271L9.339,10.441L9.339,10.441z M37.285,23.695
		C37.37,23.865,37.319,24,37.133,24H35.59c-0.153,0-0.237-0.068-0.288-0.186l-1.051-2.203h-7.305l-1.034,2.203
		C25.845,23.932,25.76,24,25.624,24h-1.559c-0.169,0-0.254-0.135-0.186-0.305l6.39-13.186c0.051-0.119,0.136-0.153,0.22-0.153h0.22
		c0.085,0,0.153,0.034,0.22,0.153L37.285,23.695z M27.776,19.865h5.644l-2.814-6L27.776,19.865z M51.892,21.678l0.746-0.848
		c0.186-0.203,0.39-0.203,0.542-0.085c0.458,0.39,1.61,1.542,3.153,1.542c1.695,0,2.712-0.814,2.712-1.932
		c0-1.39-1.526-1.78-2.983-2.339c-2.22-0.881-3.983-1.864-3.983-3.983c0-1.729,1.271-3.695,4.322-3.695
		c2.085,0,3.593,1.203,4.017,1.61c0.153,0.153,0.237,0.356,0.102,0.525l-0.661,0.864c-0.136,0.187-0.322,0.254-0.542,0.102
		c-0.441-0.339-1.492-1.288-2.898-1.288c-1.525,0-2.424,0.847-2.424,1.881c0,1.169,1.119,1.644,2.712,2.254
		c2.034,0.814,4.237,1.763,4.237,4.085c0,1.983-1.898,3.746-4.593,3.746c-2.441,0-3.949-1.576-4.373-1.983
		C51.84,22.017,51.722,21.865,51.892,21.678L51.892,21.678z M85.871,10.441c0.153,0,0.271,0.102,0.271,0.271v1.305
		c0,0.153-0.119,0.271-0.271,0.271h-4.085v11.424c0,0.186-0.102,0.288-0.271,0.288h-0.983c-0.441,0-0.661-0.288-0.661-0.678V12.289
		h-4.085c-0.153,0-0.288-0.102-0.288-0.271v-1.288c0-0.17,0.119-0.288,0.288-0.288L85.871,10.441L85.871,10.441z M127.542,12.288
		h-6.729v4.136h3.898c0.169,0,0.288,0.119,0.288,0.288v1.271c0,0.186-0.119,0.288-0.288,0.288h-3.898l0.017,3.881h6.712
		c0.169,0,0.288,0.119,0.288,0.288v1.271c0,0.169-0.119,0.288-0.288,0.288h-8.356c-0.169,0-0.288-0.119-0.288-0.288v-13
		c0-0.153,0.102-0.271,0.271-0.271h8.373c0.169,0,0.288,0.119,0.288,0.271v1.305C127.831,12.186,127.712,12.288,127.542,12.288
		L127.542,12.288z M155.37,10.441c0.153,0,0.322,0.136,0.22,0.356l-6.237,13.068c-0.051,0.119-0.17,0.22-0.305,0.22h-0.135
		c-0.136,0-0.254-0.102-0.305-0.22L142.37,10.78c-0.102-0.203,0.068-0.339,0.22-0.339h1.712c0.169,0,0.237,0.136,0.305,0.305
		l4.373,9.525l4.373-9.525c0.085-0.169,0.136-0.305,0.305-0.305L155.37,10.441L155.37,10.441z M177.044,24.119
		c3.814,0,6.915-3.034,6.915-6.915c0-3.83-3.102-6.881-6.915-6.881c-3.848,0-6.949,3.051-6.949,6.881
		C170.095,21.085,173.196,24.119,177.044,24.119z M177.044,22.271c-2.746,0-5.034-2.288-5.034-5.068
		c0-2.746,2.288-5.034,5.034-5.034c2.729,0,5.017,2.288,5.017,5.034C182.061,19.983,179.773,22.271,177.044,22.271z M207.329,22.152
		c0.152,0,0.271,0.102,0.271,0.288v1.288c0,0.152-0.119,0.271-0.271,0.271h-8c-0.153,0-0.22-0.119-0.22-0.271V10.712
		c0-0.153,0.102-0.271,0.271-0.271h1.373c0.153,0,0.271,0.119,0.271,0.271v11.441L207.329,22.152L207.329,22.152z M233.173,10.424
		H231.8c-0.169,0-0.271,0.102-0.271,0.288v8.186c0,2.254-1.593,3.373-3.475,3.373c-1.848,0-3.39-1.119-3.39-3.373v-8.186
		c0-0.186-0.102-0.288-0.271-0.288h-1.339c-0.186,0-0.305,0.102-0.305,0.288v8.322c0,2.814,1.966,5.085,5.305,5.085
		c3.356,0,5.373-2.271,5.39-5.085v-8.322C233.444,10.526,233.342,10.424,233.173,10.424L233.173,10.424z M258.796,10.441
		c0.153,0,0.271,0.102,0.271,0.271v1.305c0,0.153-0.119,0.271-0.271,0.271h-4.085v11.424c0,0.186-0.102,0.288-0.271,0.288h-0.983
		c-0.441,0-0.661-0.288-0.661-0.678V12.289h-4.085c-0.153,0-0.288-0.102-0.288-0.271v-1.288c0-0.17,0.119-0.288,0.288-0.288
		L258.796,10.441L258.796,10.441z M275.793,10.441l-1.305,0c-0.169,0-0.271,0.119-0.271,0.271v13c0,0.169,0.119,0.288,0.288,0.288
		h1.305c0.153,0,0.254-0.135,0.254-0.288v-13C276.064,10.56,275.946,10.441,275.793,10.441z M298.417,24.119
		c3.814,0,6.915-3.034,6.915-6.915c0-3.83-3.102-6.881-6.915-6.881c-3.848,0-6.949,3.051-6.949,6.881
		C291.467,21.085,294.569,24.119,298.417,24.119z M298.417,22.271c-2.746,0-5.034-2.288-5.034-5.068
		c0-2.746,2.288-5.034,5.034-5.034c2.729,0,5.017,2.288,5.017,5.034C303.434,19.983,301.145,22.271,298.417,22.271z M332.075,10.441
		c0.153,0,0.272,0.119,0.272,0.254v13.051c0,0.136-0.102,0.254-0.254,0.254h-0.475c-0.356,0-0.729-0.254-1.203-0.78l-7.864-9.034
		v9.525c0,0.153-0.119,0.271-0.271,0.271L320.939,24c-0.169,0-0.288-0.119-0.288-0.288v-13c0-0.153,0.119-0.271,0.271-0.271h0.797
		c0.153,0,0.254,0.068,0.39,0.22l8.339,9.729v-9.695c0-0.136,0.102-0.254,0.254-0.254L332.075,10.441L332.075,10.441z"/>
</g>
<g id="SvgjsG17428" transform="translate(12, 12) scale(0.798611111111111)" xmlns:name="symbol_mainfill">
	<title  xmlns="http://www.w3.org/2000/svg">planeta</title>
	
		<linearGradient id="SVGID_3_" gradientUnits="userSpaceOnUse" x1="-404.7044" y1="519.4733" x2="-403.7044" y2="519.4733" gradientTransform="matrix(79.8611 0 0 -79.8611 32320.1426 41535.7109)">
		<stop  offset="0" style="stop-color:#2D388A"/>
		<stop  offset="1" style="stop-color:#00AEEF"/>
	</linearGradient>
	<path fill="url(#SVGID_3_)" d="M50,0C22.386,0,0,22.386,0,50s22.386,50,50,50s50-22.386,50-50l0,0C100,22.386,77.614,0,50,0z M58,8
		c0.552,0,1,0.448,1,1s-0.448,1-1,1s-1-0.448-1-1S57.448,8,58,8z M43,31.75c0.503,0,0.91,0.407,0.91,0.91s-0.407,0.91-0.91,0.91
		c-0.503,0-0.91-0.407-0.91-0.91C42.095,32.16,42.5,31.755,43,31.75z M52.42,90.75l0.11,0.15c0.993,1.408,2.94,1.745,4.348,0.751
		c0.001,0,0.001-0.001,0.002-0.001l10.27-7.24c1.407-0.994,3.354-0.659,4.349,0.748c0,0.001,0.001,0.001,0.001,0.002l0.08,0.12
		c0.866,1.246,0.709,2.934-0.37,4c-21.866,11.812-49.168,3.661-60.98-18.206C-0.187,51.791,4.805,27.807,22.05,14.28
		c1.244-0.206,2.495,0.319,3.22,1.35c1.048,1.481,3.097,1.834,4.58,0.79l3.34-2.36c1.407-0.994,3.354-0.659,4.349,0.748
		c0,0.001,0.001,0.001,0.001,0.002l0.08,0.12c0.994,1.407,0.659,3.354-0.748,4.349c-0.001,0-0.001,0.001-0.002,0.001L13.63,35.7
		c-1.408,0.993-1.745,2.94-0.751,4.348c0,0.001,0.001,0.001,0.001,0.002l0.08,0.12c0.993,1.408,2.94,1.745,4.348,0.751
		c0.001,0,0.001-0.001,0.002-0.001l17-12c1.407-0.994,3.354-0.659,4.349,0.748c0,0.001,0.001,0.001,0.001,0.002l0.08,0.12
		c0.994,1.407,0.659,3.354-0.748,4.349c-0.001,0-0.001,0.001-0.002,0.001L10.85,53.3c-1.408,0.993-1.745,2.94-0.751,4.348
		c0,0.001,0.001,0.001,0.001,0.002l0.08,0.12c0.993,1.408,2.94,1.745,4.348,0.751c0.001,0,0.001-0.001,0.002-0.001L47.93,35
		c1.407-0.994,3.354-0.659,4.349,0.748c0,0.001,0.001,0.001,0.001,0.002l0.19,0.27c0.994,1.407,0.659,3.354-0.748,4.349
		c-0.001,0-0.001,0.001-0.002,0.001l-24,16.92c-1.408,0.993-1.745,2.94-0.751,4.348c0,0.001,0.001,0.001,0.001,0.002l0.08,0.12
		c0.993,1.408,2.94,1.745,4.348,0.751c0.001,0,0.001-0.001,0.002-0.001l11-7.76c1.407-0.994,3.354-0.659,4.349,0.748
		c0,0.001,0.001,0.001,0.001,0.002l0.08,0.12c0.994,1.407,0.659,3.354-0.748,4.349c-0.001,0-0.001,0.001-0.002,0.001L27.16,73.31
		c-1.408,0.993-1.745,2.94-0.751,4.348c0,0.001,0.001,0.001,0.001,0.002l0.08,0.12c0.993,1.408,2.94,1.745,4.348,0.751
		c0.001,0,0.001-0.001,0.002-0.001l25.64-18.07c1.407-0.994,3.354-0.659,4.349,0.748c0,0.001,0.001,0.001,0.001,0.002l0.08,0.12
		c0.994,1.407,0.659,3.354-0.748,4.349c-0.001,0-0.001,0.001-0.002,0.001L44.24,76.9c-1.408,0.993-1.745,2.94-0.751,4.348
		c0,0.001,0.001,0.001,0.001,0.002l0.08,0.12c0.993,1.408,2.94,1.745,4.348,0.751c0.001,0,0.001-0.001,0.002-0.001l20-14.08
		c1.407-0.994,3.354-0.659,4.349,0.748c0,0.001,0.001,0.001,0.001,0.002l0,0c0.988,1.397,0.666,3.328-0.72,4.33l-18.38,13.3
		c-1.406,0.997-1.737,2.944-0.74,4.35c0,0,0,0,0,0L52.42,90.75z M78.61,81.04c0,0.505-0.41,0.915-0.915,0.915
		c-0.505,0-0.915-0.41-0.915-0.915l0,0c0-0.505,0.41-0.915,0.915-0.915C78.2,80.125,78.61,80.535,78.61,81.04L78.61,81.04z"/>
</g>
</svg>
