<?xml version="1.0" encoding="utf-8"?>
<!-- Generator: Adobe Illustrator 17.0.0, SVG Export Plug-In . SVG Version: 6.00 Build 0)  -->
<!DOCTYPE svg PUBLIC "-//W3C//DTD SVG 1.1//EN" "http://www.w3.org/Graphics/SVG/1.1/DTD/svg11.dtd">
<svg version="1.1" id="Livello_1" xmlns="http://www.w3.org/2000/svg" xmlns:xlink="http://www.w3.org/1999/xlink" x="0px" y="0px"
	 width="331px" height="243.5px" viewBox="0 0 331 243.5" enable-background="new 0 0 331 243.5" xml:space="preserve">
<g id="main_text" transform="translate(-4.914348663186804, 139.88543161345137) scale(2.507321307716354)" xmlns:name="mainText_mainfill">
	
		<linearGradient id="SVGID_1_" gradientUnits="userSpaceOnUse" x1="1.8632" y1="251.462" x2="2.8632" y2="251.462" gradientTransform="matrix(291.1 0 0 -38.0611 -532.5017 9585.8916)">
		<stop  offset="0" style="stop-color:#2D388A"/>
		<stop  offset="1" style="stop-color:#00AEEF"/>
	</linearGradient>
	<path fill="url(#SVGID_1_)" d="M18.138,11.49c0,0.573-0.11,1.11-0.33,1.61s-0.517,0.937-0.89,1.31
		c-0.373,0.373-0.81,0.667-1.31,0.88s-1.037,0.32-1.61,0.32h-2.94v6.36c0,0.16-0.057,0.297-0.17,0.41
		c-0.113,0.113-0.25,0.17-0.41,0.17c-0.173,0-0.317-0.057-0.43-0.17s-0.17-0.25-0.17-0.41V7.95c0-0.16,0.057-0.297,0.17-0.41
		s0.257-0.17,0.43-0.17h3.52c0.573,0,1.11,0.107,1.61,0.32s0.937,0.507,1.31,0.88c0.373,0.373,0.67,0.81,0.89,1.31
		C18.028,10.38,18.138,10.917,18.138,11.49z M16.958,11.49c0-0.4-0.077-0.78-0.23-1.14c-0.153-0.36-0.363-0.677-0.63-0.95
		c-0.267-0.273-0.58-0.487-0.94-0.64s-0.747-0.23-1.16-0.23h-2.94v5.9h2.94c0.413,0,0.8-0.077,1.16-0.23
		c0.36-0.153,0.673-0.363,0.94-0.63c0.267-0.267,0.477-0.58,0.63-0.94C16.882,12.27,16.958,11.89,16.958,11.49z M21.918,21.97
		c0,0.12-0.047,0.24-0.14,0.36c-0.107,0.147-0.253,0.22-0.44,0.22c-0.173,0-0.317-0.057-0.43-0.17c-0.113-0.113-0.17-0.25-0.17-0.41
		v-8.54c0-0.16,0.057-0.297,0.17-0.41c0.113-0.113,0.257-0.17,0.43-0.17c0.16,0,0.297,0.057,0.41,0.17
		c0.113,0.113,0.17,0.25,0.17,0.41v0.5c0.147-0.307,0.387-0.563,0.72-0.77s0.673-0.31,1.02-0.31c0.6,0,1.083,0.14,1.45,0.42
		c0.367,0.28,0.65,0.693,0.85,1.24c0.067,0.187,0.05,0.37-0.05,0.55s-0.263,0.27-0.49,0.27c-0.2,0-0.35-0.073-0.45-0.22
		c-0.1-0.147-0.2-0.307-0.3-0.48c-0.1-0.173-0.233-0.327-0.4-0.46s-0.417-0.187-0.75-0.16c-0.213,0.013-0.417,0.073-0.61,0.18
		s-0.363,0.243-0.51,0.41c-0.147,0.167-0.263,0.35-0.35,0.55s-0.13,0.407-0.13,0.62C21.918,15.77,21.918,21.97,21.918,21.97z
		 M27.678,17.71c0-0.667,0.127-1.297,0.38-1.89s0.6-1.11,1.04-1.55s0.957-0.787,1.55-1.04s1.223-0.38,1.89-0.38
		c0.667,0,1.293,0.127,1.88,0.38s1.1,0.6,1.54,1.04c0.44,0.44,0.787,0.957,1.04,1.55c0.253,0.593,0.38,1.223,0.38,1.89
		s-0.127,1.293-0.38,1.88c-0.253,0.587-0.6,1.1-1.04,1.54c-0.44,0.44-0.953,0.787-1.54,1.04s-1.213,0.38-1.88,0.38
		c-0.667,0-1.297-0.127-1.89-0.38c-0.593-0.253-1.11-0.6-1.55-1.04c-0.44-0.44-0.787-0.953-1.04-1.54S27.678,18.377,27.678,17.71z
		 M28.858,17.71c0,0.507,0.097,0.983,0.29,1.43c0.193,0.447,0.457,0.833,0.79,1.16c0.333,0.327,0.723,0.587,1.17,0.78
		c0.447,0.193,0.923,0.29,1.43,0.29c0.507,0,0.983-0.097,1.43-0.29c0.447-0.193,0.833-0.453,1.16-0.78
		c0.327-0.327,0.587-0.713,0.78-1.16s0.29-0.923,0.29-1.43s-0.097-0.983-0.29-1.43s-0.453-0.837-0.78-1.17
		c-0.327-0.333-0.713-0.597-1.16-0.79c-0.447-0.193-0.923-0.29-1.43-0.29c-0.507,0-0.983,0.097-1.43,0.29
		c-0.447,0.193-0.837,0.457-1.17,0.79c-0.333,0.333-0.597,0.723-0.79,1.17C28.955,16.727,28.858,17.204,28.858,17.71z M47.218,21.97
		c0,0.16-0.057,0.297-0.17,0.41c-0.113,0.113-0.25,0.17-0.41,0.17c-0.173,0-0.327-0.067-0.46-0.2l-3.02-4.06l-3.02,4.06
		c-0.107,0.133-0.26,0.2-0.46,0.2c-0.16,0-0.297-0.057-0.41-0.17c-0.113-0.113-0.17-0.25-0.17-0.41c0-0.133,0.047-0.26,0.14-0.38
		l3.16-4.02l-3.16-3.76c-0.093-0.12-0.14-0.247-0.14-0.38c0-0.16,0.057-0.297,0.17-0.41c0.113-0.113,0.25-0.17,0.41-0.17
		c0.2,0,0.353,0.067,0.46,0.2l3.02,3.8l3.02-3.8c0.133-0.133,0.287-0.2,0.46-0.2c0.16,0,0.297,0.057,0.41,0.17
		c0.113,0.113,0.17,0.25,0.17,0.41c0,0.16-0.047,0.287-0.14,0.38l-3.14,3.76l3.14,4.02C47.172,21.684,47.218,21.81,47.218,21.97z
		 M51.578,10.01c0,0.24-0.087,0.447-0.26,0.62c-0.173,0.173-0.38,0.26-0.62,0.26c-0.24,0-0.447-0.087-0.62-0.26
		c-0.173-0.173-0.26-0.38-0.26-0.62c0-0.253,0.087-0.46,0.26-0.62s0.38-0.24,0.62-0.24c0.253,0,0.463,0.08,0.63,0.24
		S51.578,9.757,51.578,10.01z M51.298,21.97c0,0.16-0.06,0.297-0.18,0.41c-0.12,0.113-0.26,0.17-0.42,0.17
		c-0.16,0-0.297-0.057-0.41-0.17c-0.113-0.113-0.17-0.25-0.17-0.41v-8.54c0-0.16,0.057-0.297,0.17-0.41
		c0.113-0.113,0.25-0.17,0.41-0.17c0.16,0,0.3,0.057,0.42,0.17c0.12,0.113,0.18,0.25,0.18,0.41V21.97z M68.038,21.97
		c0,0.16-0.057,0.297-0.17,0.41c-0.113,0.113-0.25,0.17-0.41,0.17c-0.16,0-0.297-0.057-0.41-0.17c-0.113-0.113-0.17-0.25-0.17-0.41
		v-5.7c0-0.307-0.06-0.597-0.18-0.87c-0.12-0.273-0.283-0.51-0.49-0.71c-0.207-0.2-0.447-0.36-0.72-0.48
		c-0.273-0.12-0.563-0.18-0.87-0.18c-0.307,0-0.597,0.06-0.87,0.18c-0.273,0.12-0.51,0.28-0.71,0.48c-0.2,0.2-0.36,0.437-0.48,0.71
		c-0.12,0.273-0.18,0.563-0.18,0.87v5.7c0,0.16-0.057,0.297-0.17,0.41c-0.113,0.113-0.25,0.17-0.41,0.17s-0.3-0.057-0.42-0.17
		s-0.18-0.25-0.18-0.41v-5.7c0-0.307-0.06-0.597-0.18-0.87s-0.28-0.51-0.48-0.71c-0.2-0.2-0.437-0.36-0.71-0.48
		c-0.273-0.12-0.563-0.18-0.87-0.18c-0.307,0-0.597,0.06-0.87,0.18c-0.273,0.12-0.51,0.28-0.71,0.48c-0.2,0.2-0.36,0.437-0.48,0.71
		c-0.12,0.273-0.18,0.563-0.18,0.87c0,0.027-0.007,0.057-0.02,0.09c-0.013,0.033-0.02,0.07-0.02,0.11v5.5
		c0,0.16-0.057,0.297-0.17,0.41s-0.25,0.17-0.41,0.17c-0.173,0-0.317-0.057-0.43-0.17s-0.17-0.25-0.17-0.41v-8.66
		c0-0.173,0.057-0.317,0.17-0.43c0.113-0.113,0.257-0.17,0.43-0.17c0.147,0,0.26,0.033,0.34,0.1s0.137,0.15,0.17,0.25
		s0.053,0.21,0.06,0.33c0.007,0.12,0.01,0.233,0.01,0.34c0.307-0.28,0.657-0.497,1.05-0.65s0.803-0.23,1.23-0.23
		c0.573,0,1.11,0.133,1.61,0.4c0.5,0.267,0.91,0.633,1.23,1.1c0.307-0.467,0.713-0.833,1.22-1.1s1.04-0.4,1.6-0.4
		c0.467,0,0.907,0.09,1.32,0.27s0.777,0.427,1.09,0.74c0.313,0.313,0.56,0.677,0.74,1.09c0.18,0.413,0.27,0.853,0.27,1.32
		L68.038,21.97L68.038,21.97z M80.358,21.97c0,0.16-0.057,0.297-0.17,0.41c-0.113,0.113-0.25,0.17-0.41,0.17
		c-0.173,0-0.317-0.057-0.43-0.17c-0.113-0.113-0.17-0.25-0.17-0.41v-1.12c-0.467,0.547-1.017,0.967-1.65,1.26
		c-0.633,0.293-1.303,0.44-2.01,0.44c-0.667,0-1.297-0.127-1.89-0.38c-0.593-0.253-1.11-0.6-1.55-1.04s-0.787-0.953-1.04-1.54
		c-0.253-0.587-0.38-1.213-0.38-1.88c0-0.667,0.127-1.297,0.38-1.89c0.253-0.593,0.6-1.11,1.04-1.55
		c0.44-0.44,0.957-0.787,1.55-1.04c0.593-0.253,1.223-0.38,1.89-0.38c0.707,0,1.377,0.147,2.01,0.44s1.183,0.713,1.65,1.26v-1.12
		c0-0.16,0.057-0.297,0.17-0.41c0.113-0.113,0.257-0.17,0.43-0.17c0.16,0,0.297,0.057,0.41,0.17c0.113,0.113,0.17,0.25,0.17,0.41
		C80.358,13.43,80.358,21.97,80.358,21.97z M79.178,17.71c0-0.507-0.097-0.983-0.29-1.43s-0.453-0.837-0.78-1.17
		c-0.327-0.333-0.713-0.597-1.16-0.79c-0.447-0.193-0.923-0.29-1.43-0.29c-0.507,0-0.983,0.097-1.43,0.29
		c-0.447,0.193-0.837,0.457-1.17,0.79c-0.333,0.333-0.597,0.723-0.79,1.17c-0.193,0.447-0.29,0.923-0.29,1.43
		c0,0.507,0.097,0.983,0.29,1.43s0.457,0.833,0.79,1.16s0.723,0.587,1.17,0.78c0.447,0.193,0.923,0.29,1.43,0.29
		c0.507,0,0.983-0.097,1.43-0.29c0.447-0.193,0.833-0.453,1.16-0.78s0.587-0.713,0.78-1.16S79.178,18.217,79.178,17.71z
		 M102.878,16.77c0,0.8-0.153,1.55-0.46,2.25c-0.307,0.7-0.72,1.31-1.24,1.83c-0.52,0.52-1.133,0.933-1.84,1.24
		c-0.707,0.307-1.46,0.46-2.26,0.46s-1.55-0.153-2.25-0.46c-0.7-0.307-1.31-0.72-1.83-1.24s-0.933-1.13-1.24-1.83
		c-0.307-0.7-0.46-1.45-0.46-2.25V7.95c0-0.16,0.057-0.297,0.17-0.41s0.257-0.17,0.43-0.17c0.16,0,0.297,0.057,0.41,0.17
		c0.113,0.113,0.17,0.25,0.17,0.41v8.82c0,0.64,0.12,1.237,0.36,1.79c0.24,0.553,0.57,1.04,0.99,1.46
		c0.42,0.42,0.907,0.75,1.46,0.99c0.553,0.24,1.15,0.36,1.79,0.36s1.24-0.12,1.8-0.36c0.56-0.24,1.05-0.57,1.47-0.99
		s0.75-0.907,0.99-1.46c0.24-0.553,0.36-1.15,0.36-1.79V7.95c0-0.16,0.057-0.297,0.17-0.41c0.113-0.113,0.25-0.17,0.41-0.17
		s0.3,0.057,0.42,0.17s0.18,0.25,0.18,0.41L102.878,16.77L102.878,16.77z M113.678,21.97c0,0.16-0.057,0.297-0.17,0.41
		c-0.113,0.113-0.25,0.17-0.41,0.17s-0.3-0.057-0.42-0.17c-0.12-0.113-0.18-0.25-0.18-0.41v-5.7c0-0.307-0.06-0.597-0.18-0.87
		c-0.12-0.273-0.28-0.51-0.48-0.71c-0.2-0.2-0.437-0.36-0.71-0.48c-0.273-0.12-0.563-0.18-0.87-0.18c-0.307,0-0.597,0.06-0.87,0.18
		c-0.273,0.12-0.51,0.28-0.71,0.48c-0.2,0.2-0.36,0.437-0.48,0.71c-0.12,0.273-0.18,0.563-0.18,0.87c0,0.027-0.007,0.057-0.02,0.09
		c-0.013,0.033-0.02,0.07-0.02,0.11v5.5c0,0.16-0.057,0.297-0.17,0.41c-0.113,0.113-0.25,0.17-0.41,0.17
		c-0.173,0-0.317-0.057-0.43-0.17c-0.113-0.113-0.17-0.25-0.17-0.41v-8.66c0-0.173,0.057-0.317,0.17-0.43
		c0.113-0.113,0.257-0.17,0.43-0.17c0.147,0,0.26,0.033,0.34,0.1c0.08,0.067,0.137,0.15,0.17,0.25s0.053,0.21,0.06,0.33
		c0.007,0.12,0.01,0.233,0.01,0.34c0.307-0.28,0.657-0.497,1.05-0.65c0.393-0.153,0.803-0.23,1.23-0.23
		c0.467,0,0.907,0.09,1.32,0.27c0.413,0.18,0.777,0.427,1.09,0.74c0.313,0.313,0.56,0.677,0.74,1.09
		c0.18,0.413,0.27,0.853,0.27,1.32L113.678,21.97L113.678,21.97z M116.278,17.71c0-0.667,0.127-1.297,0.38-1.89
		c0.253-0.593,0.6-1.11,1.04-1.55s0.957-0.787,1.55-1.04c0.593-0.253,1.223-0.38,1.89-0.38c0.667,0,1.293,0.127,1.88,0.38
		c0.587,0.253,1.1,0.6,1.54,1.04c0.44,0.44,0.787,0.957,1.04,1.55c0.253,0.593,0.38,1.223,0.38,1.89s-0.127,1.293-0.38,1.88
		c-0.253,0.587-0.6,1.1-1.04,1.54c-0.44,0.44-0.953,0.787-1.54,1.04c-0.587,0.253-1.213,0.38-1.88,0.38
		c-0.667,0-1.297-0.127-1.89-0.38c-0.593-0.253-1.11-0.6-1.55-1.04s-0.787-0.953-1.04-1.54
		C116.405,19.004,116.278,18.377,116.278,17.71z M117.458,17.71c0,0.507,0.097,0.983,0.29,1.43s0.457,0.833,0.79,1.16
		c0.333,0.327,0.723,0.587,1.17,0.78c0.447,0.193,0.923,0.29,1.43,0.29s0.983-0.097,1.43-0.29c0.447-0.193,0.833-0.453,1.16-0.78
		c0.327-0.327,0.587-0.713,0.78-1.16s0.29-0.923,0.29-1.43s-0.097-0.983-0.29-1.43c-0.193-0.447-0.453-0.837-0.78-1.17
		c-0.327-0.333-0.713-0.597-1.16-0.79c-0.447-0.193-0.923-0.29-1.43-0.29s-0.983,0.097-1.43,0.29
		c-0.447,0.193-0.837,0.457-1.17,0.79c-0.333,0.333-0.597,0.723-0.79,1.17S117.458,17.204,117.458,17.71z"/>
</g>
<g id="slogan_text" transform="translate(57.55349539753269, 214.56147190248836) scale(0.5268798652250162)" xmlns:name="sloganText_mainfill">
	
		<linearGradient id="SVGID_2_" gradientUnits="userSpaceOnUse" x1="-110.0022" y1="1074.0714" x2="-109.0022" y2="1074.0714" gradientTransform="matrix(174.66 0 0 -7.2692 19251.5176 7818.0049)">
		<stop  offset="0" style="stop-color:#2D388A"/>
		<stop  offset="1" style="stop-color:#00AEEF"/>
	</linearGradient>
	<path fill="url(#SVGID_2_)" d="M47.021,3.543c0.17,0,0.288,0.119,0.288,0.271v1.305c0,0.169-0.102,0.271-0.288,0.271h-6.576v4.136
		h3.746c0.169,0,0.288,0.119,0.288,0.288v1.271c0,0.186-0.119,0.288-0.288,0.288h-3.746v5.441c0,0.186-0.102,0.288-0.254,0.288
		h-1.017c-0.407,0-0.644-0.288-0.644-0.678V3.814c0-0.153,0.102-0.271,0.271-0.271L47.021,3.543L47.021,3.543z M74.967,16.797
		c0.085,0.17,0.034,0.305-0.153,0.305h-1.542c-0.153,0-0.237-0.068-0.288-0.186l-1.051-2.203h-7.305l-1.034,2.203
		c-0.068,0.119-0.153,0.186-0.288,0.186h-1.559c-0.169,0-0.254-0.135-0.186-0.305l6.39-13.186c0.051-0.119,0.136-0.153,0.22-0.153
		h0.22c0.085,0,0.153,0.034,0.22,0.153L74.967,16.797z M65.458,12.966h5.644l-2.814-6L65.458,12.966z M89.573,14.78l0.746-0.848
		c0.186-0.203,0.39-0.203,0.542-0.085c0.458,0.39,1.61,1.542,3.153,1.542c1.695,0,2.712-0.814,2.712-1.932
		c0-1.39-1.526-1.78-2.983-2.339c-2.22-0.881-3.983-1.864-3.983-3.983c0-1.729,1.271-3.695,4.322-3.695
		c2.085,0,3.593,1.203,4.017,1.61c0.153,0.153,0.237,0.356,0.102,0.525L97.539,6.44c-0.136,0.187-0.322,0.254-0.542,0.102
		c-0.441-0.339-1.492-1.288-2.898-1.288c-1.525,0-2.424,0.847-2.424,1.881c0,1.169,1.119,1.644,2.712,2.254
		c2.034,0.814,4.237,1.763,4.237,4.085c0,1.983-1.898,3.746-4.593,3.746c-2.441,0-3.949-1.576-4.373-1.983
		C89.522,15.119,89.404,14.966,89.573,14.78L89.573,14.78z M123.553,3.543c0.153,0,0.271,0.102,0.271,0.271v1.305
		c0,0.153-0.119,0.271-0.271,0.271h-4.085v11.424c0,0.186-0.102,0.288-0.271,0.288h-0.983c-0.441,0-0.661-0.288-0.661-0.678V5.39
		h-4.085c-0.153,0-0.288-0.102-0.288-0.271V3.831c0-0.17,0.119-0.288,0.288-0.288L123.553,3.543L123.553,3.543z M165.224,5.39
		h-6.729v4.136h3.898c0.169,0,0.288,0.119,0.288,0.288v1.271c0,0.186-0.119,0.288-0.288,0.288h-3.898l0.017,3.881h6.712
		c0.169,0,0.288,0.119,0.288,0.288v1.271c0,0.169-0.119,0.288-0.288,0.288h-8.356c-0.169,0-0.288-0.119-0.288-0.288v-13
		c0-0.153,0.102-0.271,0.271-0.271h8.373c0.169,0,0.288,0.119,0.288,0.271v1.305C165.513,5.288,165.394,5.39,165.224,5.39
		L165.224,5.39z M193.052,3.543c0.153,0,0.322,0.136,0.22,0.356l-6.237,13.068c-0.051,0.119-0.17,0.22-0.305,0.22h-0.135
		c-0.136,0-0.254-0.102-0.305-0.22l-6.237-13.085c-0.102-0.203,0.068-0.339,0.22-0.339h1.712c0.169,0,0.237,0.136,0.305,0.305
		l4.373,9.525l4.373-9.525c0.085-0.169,0.136-0.305,0.305-0.305L193.052,3.543L193.052,3.543z M214.726,17.22
		c3.814,0,6.915-3.034,6.915-6.915c0-3.83-3.102-6.881-6.915-6.881c-3.848,0-6.949,3.051-6.949,6.881
		C207.777,14.187,210.878,17.22,214.726,17.22z M214.726,15.373c-2.746,0-5.034-2.288-5.034-5.068c0-2.746,2.288-5.034,5.034-5.034
		c2.729,0,5.017,2.288,5.017,5.034C219.743,13.085,217.455,15.373,214.726,15.373z M245.011,15.254c0.152,0,0.271,0.102,0.271,0.288
		v1.288c0,0.152-0.119,0.271-0.271,0.271h-8c-0.153,0-0.22-0.119-0.22-0.271V3.813c0-0.153,0.102-0.271,0.271-0.271h1.373
		c0.153,0,0.271,0.119,0.271,0.271v11.441L245.011,15.254L245.011,15.254z M270.855,3.526h-1.373c-0.169,0-0.271,0.102-0.271,0.288
		V12c0,2.254-1.593,3.373-3.475,3.373c-1.848,0-3.39-1.119-3.39-3.373V3.814c0-0.186-0.102-0.288-0.271-0.288h-1.339
		c-0.186,0-0.305,0.102-0.305,0.288v8.322c0,2.814,1.966,5.085,5.305,5.085c3.356,0,5.373-2.271,5.39-5.085V3.814
		C271.126,3.627,271.024,3.526,270.855,3.526L270.855,3.526z M296.478,3.543c0.153,0,0.271,0.102,0.271,0.271v1.305
		c0,0.153-0.119,0.271-0.271,0.271h-4.085v11.424c0,0.186-0.102,0.288-0.271,0.288h-0.983c-0.441,0-0.661-0.288-0.661-0.678V5.39
		h-4.085c-0.153,0-0.288-0.102-0.288-0.271V3.831c0-0.17,0.119-0.288,0.288-0.288L296.478,3.543L296.478,3.543z M313.475,3.543
		l-1.305,0c-0.169,0-0.271,0.119-0.271,0.271v13c0,0.169,0.119,0.288,0.288,0.288h1.305c0.153,0,0.254-0.135,0.254-0.288v-13
		C313.746,3.661,313.628,3.543,313.475,3.543z M336.099,17.22c3.814,0,6.915-3.034,6.915-6.915c0-3.83-3.102-6.881-6.915-6.881
		c-3.848,0-6.949,3.051-6.949,6.881C329.149,14.187,332.251,17.22,336.099,17.22z M336.099,15.373c-2.746,0-5.034-2.288-5.034-5.068
		c0-2.746,2.288-5.034,5.034-5.034c2.729,0,5.017,2.288,5.017,5.034C341.116,13.085,338.827,15.373,336.099,15.373z M369.757,3.543
		c0.153,0,0.272,0.119,0.272,0.254v13.051c0,0.136-0.102,0.254-0.254,0.254h-0.475c-0.356,0-0.729-0.254-1.203-0.78l-7.864-9.034
		v9.525c0,0.153-0.119,0.271-0.271,0.271l-1.339,0.017c-0.169,0-0.288-0.119-0.288-0.288v-13c0-0.153,0.119-0.271,0.271-0.271h0.797
		c0.153,0,0.254,0.068,0.39,0.22l8.339,9.729V3.797c0-0.136,0.102-0.254,0.254-0.254L369.757,3.543L369.757,3.543z"/>
</g>
<g id="SvgjsG16752" transform="translate(84, 15) scale(1.2226199999999998)" xmlns:name="symbol_mainfill">
	<title  xmlns="http://www.w3.org/2000/svg">planeta</title>
	
		<linearGradient id="SVGID_3_" gradientUnits="userSpaceOnUse" x1="-69.1775" y1="616.4968" x2="-68.1775" y2="616.4968" gradientTransform="matrix(122.262 0 0 -122.262 8474.0215 75421.1562)">
		<stop  offset="0" style="stop-color:#2D388A"/>
		<stop  offset="1" style="stop-color:#00AEEF"/>
	</linearGradient>
	<path fill="url(#SVGID_3_)" d="M66.239-2.973c-27.614,0-50,22.386-50,50s22.386,50,50,50s50-22.386,50-50l0,0
		C116.239,19.413,93.853-2.973,66.239-2.973z M74.239,5.027c0.552,0,1,0.448,1,1s-0.448,1-1,1s-1-0.448-1-1
		S73.687,5.027,74.239,5.027z M59.239,28.777c0.503,0,0.91,0.407,0.91,0.91s-0.407,0.91-0.91,0.91c-0.503,0-0.91-0.407-0.91-0.91
		C58.334,29.187,58.738,28.783,59.239,28.777z M68.659,87.777l0.11,0.15c0.993,1.408,2.94,1.745,4.348,0.751
		c0.001,0,0.001-0.001,0.002-0.001l10.27-7.24c1.407-0.994,3.354-0.659,4.349,0.748c0,0.001,0.001,0.001,0.001,0.002l0.08,0.12
		c0.866,1.246,0.709,2.934-0.37,4c-21.866,11.812-49.168,3.661-60.98-18.206c-10.417-19.284-5.425-43.268,11.82-56.794
		c1.244-0.206,2.495,0.319,3.22,1.35c1.048,1.481,3.097,1.834,4.58,0.79l3.34-2.36c1.407-0.994,3.354-0.659,4.349,0.748
		c0,0.001,0.001,0.001,0.001,0.002l0.08,0.12c0.994,1.407,0.659,3.354-0.748,4.349c-0.001,0-0.001,0.001-0.002,0.001l-23.24,16.42
		c-1.408,0.993-1.745,2.94-0.751,4.348c0,0.001,0.001,0.001,0.001,0.002l0.08,0.12c0.993,1.408,2.94,1.745,4.348,0.751
		c0.001,0,0.001-0.001,0.002-0.001l17-12c1.407-0.994,3.354-0.659,4.349,0.748c0,0.001,0.001,0.001,0.001,0.002l0.08,0.12
		c0.994,1.407,0.659,3.354-0.748,4.349c-0.001,0-0.001,0.001-0.002,0.001l-27.14,19.16c-1.408,0.993-1.745,2.94-0.751,4.348
		c0,0.001,0.001,0.001,0.001,0.002l0.08,0.12c0.993,1.408,2.94,1.745,4.348,0.751c0.001,0,0.001-0.001,0.002-0.001l33.4-23.52
		c1.407-0.994,3.354-0.659,4.349,0.748c0,0.001,0.001,0.001,0.001,0.002l0.19,0.27c0.994,1.407,0.659,3.354-0.748,4.349
		c-0.001,0-0.001,0.001-0.002,0.001l-24,16.92c-1.408,0.993-1.745,2.94-0.751,4.348c0,0.001,0.001,0.001,0.001,0.002l0.08,0.12
		c0.993,1.408,2.94,1.745,4.348,0.751c0.001,0,0.001-0.001,0.002-0.001l11-7.76c1.407-0.994,3.354-0.659,4.349,0.748
		c0,0.001,0.001,0.001,0.001,0.002l0.08,0.12c0.994,1.407,0.659,3.354-0.748,4.349c-0.001,0-0.001,0.001-0.002,0.001l-18.92,13.34
		c-1.408,0.993-1.745,2.94-0.751,4.348c0,0.001,0.001,0.001,0.001,0.002l0.08,0.12c0.993,1.408,2.94,1.745,4.348,0.751
		c0.001,0,0.001-0.001,0.002-0.001l25.64-18.07c1.407-0.994,3.354-0.659,4.349,0.748c0,0.001,0.001,0.001,0.001,0.002l0.08,0.12
		c0.994,1.407,0.659,3.354-0.748,4.349c-0.001,0-0.001,0.001-0.002,0.001l-15.92,11.22c-1.408,0.993-1.745,2.94-0.751,4.348
		c0,0.001,0.001,0.001,0.001,0.002l0.08,0.12c0.993,1.408,2.94,1.745,4.348,0.751c0.001,0,0.001-0.001,0.002-0.001l20-14.08
		c1.407-0.994,3.354-0.659,4.349,0.748c0,0.001,0.001,0.001,0.001,0.002l0,0c0.988,1.397,0.666,3.328-0.72,4.33l-18.38,13.3
		c-1.406,0.997-1.737,2.944-0.74,4.35c0,0,0,0,0,0L68.659,87.777z M94.849,78.067c0,0.505-0.41,0.915-0.915,0.915
		c-0.505,0-0.915-0.41-0.915-0.915l0,0c0-0.505,0.41-0.915,0.915-0.915C94.439,77.152,94.849,77.562,94.849,78.067L94.849,78.067z"
		/>
</g>
</svg>
